<?xml version="1.0" standalone="no"?>
<!DOCTYPE svg PUBLIC "-//W3C//DTD SVG 20010904//EN"
 "http://www.w3.org/TR/2001/REC-SVG-20010904/DTD/svg10.dtd">
<svg version="1.0" xmlns="http://www.w3.org/2000/svg"
 width="960.000000pt" height="960.000000pt" viewBox="0 0 960.000000 960.000000"
 preserveAspectRatio="xMidYMid meet">
<metadata>
Created by potrace 1.14, written by Peter Selinger 2001-2017
</metadata>
<g transform="translate(0.000000,960.000000) scale(0.100000,-0.100000)"
fill="#000000" stroke="none">
<path d="M4525 9589 c-178 -8 -392 -31 -518 -55 -191 -36 -337 -67 -407 -86
-200 -55 -459 -138 -505 -162 -16 -9 -35 -16 -41 -16 -11 0 -70 -25 -189 -79
-33 -16 -77 -34 -97 -42 -21 -7 -38 -17 -38 -21 0 -4 -5 -8 -12 -8 -15 0 -142
-63 -146 -72 -2 -5 -8 -8 -14 -8 -5 0 -39 -17 -75 -37 -35 -21 -88 -51 -118
-68 -29 -16 -59 -35 -66 -41 -8 -5 -40 -26 -71 -44 -32 -19 -58 -38 -58 -42 0
-4 -4 -8 -10 -8 -5 0 -45 -24 -87 -53 -332 -225 -706 -569 -968 -890 -43 -53
-82 -94 -87 -91 -5 3 -7 1 -6 -4 2 -6 -21 -43 -50 -83 -90 -126 -175 -250
-233 -344 -85 -137 -95 -155 -131 -225 -18 -36 -36 -67 -39 -70 -4 -3 -38 -70
-77 -150 -117 -242 -249 -592 -297 -790 -9 -36 -20 -74 -25 -85 -12 -28 -58
-235 -70 -320 -6 -38 -17 -99 -25 -135 -36 -163 -49 -365 -49 -760 0 -395 13
-597 49 -760 8 -36 21 -108 30 -160 8 -52 28 -149 45 -215 18 -66 36 -138 40
-160 13 -58 125 -394 144 -430 9 -16 16 -34 16 -40 0 -11 68 -172 106 -249 13
-28 24 -55 24 -62 0 -7 3 -14 8 -16 4 -1 39 -65 77 -141 69 -138 173 -314 257
-436 78 -114 259 -355 295 -393 22 -22 32 -41 28 -49 -5 -7 -4 -10 3 -5 6 3
17 -3 25 -14 14 -20 95 -108 217 -235 77 -81 271 -262 315 -296 17 -13 46 -37
66 -53 239 -204 574 -422 879 -574 41 -20 77 -40 78 -44 2 -5 8 -8 13 -8 4 0
32 -11 61 -24 462 -213 979 -355 1488 -411 198 -22 620 -30 840 -16 562 36
1102 166 1605 386 53 23 210 95 225 104 8 4 65 34 125 66 61 32 117 63 125 69
8 7 40 25 70 41 30 16 61 35 68 42 7 7 28 20 46 28 18 9 43 25 54 35 12 11 24
20 27 20 6 0 175 119 210 148 11 9 57 44 103 79 46 34 112 88 149 120 36 32
69 57 74 55 5 -1 8 1 7 5 -1 5 38 46 86 93 150 144 275 275 390 410 101 119
272 351 352 478 32 52 66 104 74 117 97 153 360 682 360 725 0 5 9 29 20 53
52 112 147 430 200 672 88 398 104 562 104 1050 -1 465 -8 549 -90 980 -22
115 -68 286 -125 465 -27 86 -49 159 -49 163 0 3 -11 30 -24 59 -13 29 -29 71
-36 93 -7 22 -25 67 -40 100 -15 33 -40 89 -56 125 -39 88 -171 347 -198 390
-13 19 -51 82 -86 140 -35 58 -66 107 -69 110 -3 3 -28 39 -56 80 -56 85 -141
203 -173 240 -12 14 -45 54 -73 90 -28 36 -67 81 -86 102 -19 20 -32 41 -28
47 3 6 2 10 -3 9 -5 -2 -85 74 -178 167 -93 94 -198 195 -234 226 -147 126
-200 169 -209 169 -5 0 -11 4 -13 9 -12 32 -441 328 -558 385 -8 4 -37 20 -65
36 -173 102 -550 274 -745 339 -227 77 -324 104 -530 150 -451 102 -845 134
-1345 110z m510 -89 c185 -12 399 -34 535 -56 112 -17 419 -86 505 -113 33
-10 87 -26 120 -36 200 -58 566 -203 705 -279 14 -8 59 -32 100 -53 103 -55
166 -90 228 -130 29 -18 55 -33 58 -33 2 0 10 -5 17 -10 7 -6 62 -43 122 -83
61 -39 117 -77 125 -84 8 -6 40 -30 70 -52 61 -45 83 -63 150 -121 25 -22 48
-40 51 -40 3 0 17 -10 31 -22 14 -13 54 -48 89 -78 80 -70 307 -297 379 -380
30 -34 64 -73 75 -85 11 -13 38 -46 60 -74 22 -29 61 -77 86 -109 25 -31 56
-73 69 -92 13 -19 27 -37 30 -40 3 -3 44 -63 91 -135 207 -314 387 -670 499
-990 23 -66 46 -129 50 -140 5 -11 16 -47 25 -80 10 -33 23 -80 31 -105 7 -25
15 -54 17 -65 2 -11 7 -27 10 -35 4 -8 11 -35 16 -60 5 -25 21 -99 35 -165 74
-336 113 -819 94 -1170 -12 -244 -53 -559 -99 -769 -22 -99 -42 -188 -46 -196
-3 -8 -7 -22 -8 -30 -1 -8 -12 -49 -25 -90 -12 -41 -27 -95 -35 -120 -68 -240
-267 -692 -403 -920 -12 -19 -29 -48 -38 -65 -16 -29 -189 -290 -256 -387 -28
-40 -140 -180 -201 -252 -10 -11 -42 -48 -70 -81 -67 -78 -303 -313 -391 -390
-38 -33 -74 -65 -80 -70 -10 -9 -117 -97 -156 -128 -91 -73 -412 -297 -425
-297 -3 0 -137 -78 -205 -120 -24 -14 -310 -156 -360 -178 -295 -130 -666
-248 -965 -308 -457 -91 -974 -117 -1415 -69 -472 51 -977 177 -1306 326 -22
11 -43 19 -47 19 -4 0 -35 13 -69 29 -35 15 -88 39 -118 52 -30 12 -57 25 -60
28 -3 4 -43 26 -90 50 -114 58 -184 97 -248 137 -29 19 -54 34 -57 34 -8 0
-100 65 -103 73 -2 4 -8 7 -13 7 -4 0 -43 24 -84 53 -42 28 -86 59 -98 67 -30
20 -95 69 -133 100 -74 60 -118 96 -139 115 -13 11 -58 50 -101 87 -136 117
-368 359 -504 527 -19 24 -47 57 -61 75 -45 55 -144 190 -169 231 -13 22 -28
45 -33 50 -30 37 -195 308 -218 357 -7 16 -16 28 -20 28 -4 0 -10 11 -13 24
-3 13 -21 50 -39 82 -18 33 -43 84 -56 114 -13 30 -36 82 -51 115 -14 33 -37
85 -50 115 -12 30 -26 64 -31 75 -23 54 -85 232 -115 335 -57 191 -63 211 -89
335 -14 66 -30 136 -35 155 -10 37 -28 160 -55 375 -22 171 -32 456 -24 702 7
195 44 538 74 673 8 36 26 119 41 185 14 66 37 158 51 205 49 173 75 256 89
287 8 17 14 36 14 42 0 6 6 25 14 43 8 18 22 53 31 78 9 25 21 53 26 63 5 9
20 45 33 80 13 34 40 95 60 134 20 40 36 79 36 87 0 8 4 16 8 18 4 2 41 66 81
143 41 77 81 151 91 165 10 14 26 41 37 60 10 19 50 81 88 138 39 57 75 111
80 120 6 9 29 42 53 72 23 30 46 60 50 65 57 74 78 101 83 105 3 3 19 23 35
45 120 162 457 493 710 695 94 75 369 270 381 270 3 0 21 11 39 25 18 14 36
25 39 25 4 0 21 10 38 23 18 12 41 27 52 33 11 6 45 25 75 43 110 63 393 198
525 251 465 186 924 293 1410 330 286 22 379 23 590 10z"/>
<path d="M5041 9013 c-6 -38 -22 -163 -36 -279 -13 -116 -27 -229 -31 -251
l-6 -41 64 -11 c89 -15 86 -16 92 32 27 218 39 280 49 266 11 -14 184 -228
199 -244 9 -11 38 -46 64 -77 44 -55 74 -73 74 -45 0 10 25 212 61 502 17 130
17 128 -11 136 -34 10 -118 11 -124 1 -2 -4 -12 -70 -21 -147 -9 -77 -20 -144
-24 -148 -5 -4 -21 9 -37 30 -15 20 -35 44 -44 53 -8 8 -31 36 -50 60 -19 25
-37 47 -40 50 -3 3 -38 44 -79 93 -40 48 -77 87 -81 87 -5 0 -13 -30 -19 -67z"/>
<path d="M4420 9050 c-30 -11 -56 -20 -57 -20 -2 0 -24 -19 -49 -42 -140 -129
-142 -368 -5 -500 15 -14 52 -39 82 -54 47 -24 65 -28 134 -27 125 1 200 38
269 133 45 63 56 100 56 197 0 74 -4 92 -31 149 -53 110 -147 172 -274 180
-54 4 -82 0 -125 -16z m167 -149 c63 -29 96 -86 97 -165 1 -75 -20 -121 -73
-156 -119 -80 -263 43 -236 201 8 47 76 124 116 132 44 8 54 7 96 -12z"/>
<path d="M3838 8970 c-9 -6 -28 -11 -42 -12 -14 -1 -26 -6 -26 -10 0 -3 -9 -9
-20 -13 -33 -10 -101 -85 -121 -133 -100 -234 46 -482 283 -482 87 0 142 14
192 48 58 40 62 50 49 137 -6 42 -14 79 -17 83 -4 3 -21 -10 -39 -30 -59 -66
-95 -83 -168 -83 -60 0 -68 3 -96 30 -40 40 -73 117 -73 170 0 34 8 53 33 87
18 24 45 49 60 56 37 18 114 17 159 -2 53 -23 60 -21 54 17 -3 17 -8 53 -11
80 -5 38 -10 47 -26 47 -10 0 -19 5 -19 10 0 13 -149 13 -172 0z"/>
<path d="M5837 8952 c-3 -4 -19 -54 -36 -112 -18 -58 -38 -121 -46 -140 -21
-53 -108 -323 -109 -338 -1 -12 98 -51 130 -52 7 0 33 65 59 145 27 79 51 142
56 140 7 -5 45 -72 124 -220 108 -202 119 -220 136 -209 4 2 11 19 14 37 4 17
10 37 14 42 4 6 22 57 40 115 19 58 44 134 57 170 12 36 30 90 39 120 9 30 21
65 27 76 18 38 6 58 -42 70 -25 5 -53 14 -63 18 -25 12 -31 2 -57 -84 -20 -68
-68 -200 -75 -208 -2 -2 -24 37 -51 85 -26 48 -63 115 -81 148 -18 33 -49 90
-69 127 -33 62 -58 87 -67 70z"/>
<path d="M6548 8648 c-8 -13 -22 -41 -32 -63 -9 -22 -21 -47 -26 -55 -47 -80
-202 -401 -198 -412 6 -15 313 -178 335 -178 13 0 65 100 60 115 -3 7 -50 35
-105 63 l-99 49 23 39 c13 21 25 43 27 48 3 8 33 -4 107 -43 72 -38 75 -37
104 21 32 64 32 74 4 85 -13 4 -51 23 -86 41 l-62 32 21 43 c12 23 23 44 24
45 2 2 49 -20 105 -49 l103 -52 18 24 c10 13 19 30 19 37 0 7 7 24 16 37 15
24 15 24 -43 53 -32 17 -107 55 -167 86 -59 31 -114 56 -121 56 -7 0 -19 -10
-27 -22z"/>
<path d="M2947 8640 c-107 -34 -165 -92 -174 -174 -7 -58 1 -87 33 -126 40
-47 78 -61 190 -71 122 -11 154 -21 154 -49 0 -55 -59 -89 -160 -91 -33 -1
-62 -5 -65 -8 -2 -4 9 -27 26 -52 16 -24 29 -49 29 -55 0 -6 9 -19 20 -29 19
-17 25 -17 73 -5 119 30 181 71 218 142 46 89 6 218 -83 264 -14 7 -59 16
-100 19 -137 11 -160 14 -174 26 -20 17 -18 27 15 60 27 26 36 29 95 29 35 0
67 3 70 8 2 4 -10 34 -27 67 -37 70 -50 74 -140 45z"/>
<path d="M2497 8379 c-32 -22 -57 -43 -57 -47 0 -4 10 -18 21 -32 18 -23 79
-110 104 -149 6 -9 18 -27 28 -40 9 -13 17 -28 17 -34 0 -11 -72 -5 -210 18
-212 35 -290 42 -290 29 0 -10 42 -77 56 -89 6 -5 21 -27 33 -48 13 -21 28
-43 34 -50 7 -7 17 -20 22 -29 6 -9 39 -58 75 -108 36 -51 70 -99 75 -108 11
-17 24 -34 54 -72 l19 -25 36 19 c19 10 45 29 57 43 23 23 23 24 5 55 -11 17
-50 74 -87 127 -41 58 -63 97 -55 99 15 3 330 -40 459 -63 47 -8 41 18 -25
109 -35 48 -68 97 -75 110 -7 12 -24 35 -38 50 -14 15 -25 29 -25 32 0 6 -170
244 -174 244 -2 0 -28 -18 -59 -41z"/>
<path d="M7071 8289 c-66 -13 -181 -86 -181 -115 0 -6 -7 -14 -15 -17 -8 -3
-24 -28 -37 -54 -19 -40 -23 -64 -23 -148 0 -85 3 -106 22 -142 51 -95 153
-168 250 -180 46 -5 49 -4 78 33 34 43 65 90 65 99 0 3 -19 5 -42 5 -64 0
-114 17 -154 52 -76 67 -85 142 -29 226 62 91 146 115 235 66 49 -27 69 -58
88 -133 4 -19 12 -36 17 -37 14 -4 105 110 105 131 0 54 -106 164 -190 198
-47 20 -136 27 -189 16z"/>
<path d="M4545 8193 c-128 -7 -512 -74 -630 -109 -128 -39 -182 -56 -210 -68
-16 -7 -55 -21 -85 -30 -62 -20 -69 -23 -230 -98 -172 -80 -274 -137 -395
-218 -284 -190 -431 -316 -665 -565 -36 -38 -69 -68 -73 -67 -5 1 -6 -2 -2 -8
3 -6 -7 -24 -24 -41 -32 -32 -170 -218 -190 -257 -7 -12 -17 -20 -23 -16 -7 4
-8 3 -4 -4 4 -7 -4 -27 -17 -44 -100 -136 -295 -544 -355 -743 -53 -177 -82
-287 -97 -370 -8 -49 -20 -108 -25 -130 -15 -62 -29 -184 -41 -360 -12 -180 1
-499 27 -645 52 -296 58 -324 85 -415 29 -101 88 -283 108 -335 23 -59 134
-303 141 -310 3 -3 16 -27 30 -55 33 -66 93 -167 141 -237 21 -31 39 -61 39
-66 0 -6 4 -12 8 -14 4 -1 23 -25 42 -53 19 -27 42 -58 51 -70 9 -11 37 -45
62 -77 25 -31 43 -59 39 -64 -4 -4 -2 -4 4 -1 7 4 20 -5 30 -21 18 -27 242
-255 324 -328 66 -59 197 -162 255 -200 28 -19 69 -47 93 -64 23 -16 45 -30
49 -30 3 0 20 -10 37 -23 90 -67 359 -204 512 -262 55 -20 119 -45 144 -54 25
-10 63 -23 85 -29 22 -6 69 -20 105 -31 83 -25 215 -55 305 -70 39 -7 95 -16
125 -21 167 -29 594 -40 791 -19 436 44 774 141 1174 335 39 19 93 47 120 63
28 15 73 41 100 56 28 15 55 33 60 39 6 7 17 15 26 18 27 10 179 117 274 194
445 357 756 767 1002 1324 41 91 127 349 147 440 3 14 16 72 29 130 14 58 30
143 36 190 7 47 17 114 24 150 16 89 16 640 0 740 -7 41 -20 122 -29 178 -36
238 -134 564 -237 797 -84 189 -240 465 -300 532 -10 12 -16 26 -12 33 3 6 2
9 -4 8 -6 -2 -19 9 -28 23 -114 169 -348 423 -538 585 -38 32 -81 69 -95 82
-14 12 -28 22 -31 22 -3 0 -17 10 -30 21 -13 12 -35 29 -49 38 -14 9 -54 37
-89 64 -35 26 -70 47 -77 47 -8 0 -14 4 -14 8 0 5 -10 14 -22 20 -13 6 -50 27
-83 47 -279 164 -681 317 -983 374 -340 64 -603 82 -937 64z m392 -1144 c162
-22 342 -111 464 -229 127 -123 209 -261 250 -419 73 -283 -6 -591 -207 -808
-20 -22 -22 -22 -38 -5 -21 25 -21 29 12 67 56 67 65 82 113 180 66 135 83
221 77 390 -5 106 -10 144 -32 206 -50 144 -103 229 -210 334 -151 149 -305
213 -531 222 -113 5 -142 2 -220 -17 -85 -21 -196 -66 -203 -82 -2 -5 -8 -8
-12 -8 -23 0 -109 -66 -175 -133 -64 -66 -155 -196 -155 -223 0 -5 -8 -25 -19
-44 -10 -19 -26 -75 -36 -125 -21 -106 -16 -293 9 -387 24 -89 92 -219 152
-292 30 -36 54 -69 54 -74 0 -5 -8 -16 -18 -26 -18 -15 -21 -13 -69 41 -135
156 -220 392 -210 586 2 51 7 106 11 122 21 97 31 131 57 196 35 85 106 196
178 274 5 6 31 29 58 51 198 167 444 239 700 203z m-62 -874 c27 -38 71 -104
100 -145 29 -41 78 -113 110 -160 32 -47 72 -105 89 -129 17 -23 36 -50 41
-59 23 -37 190 -282 267 -391 26 -36 56 -82 67 -101 10 -19 29 -45 40 -57 12
-12 21 -24 21 -27 0 -3 14 -25 30 -48 17 -24 70 -101 119 -173 48 -71 102
-150 119 -175 18 -25 70 -101 117 -170 46 -69 118 -174 160 -235 41 -60 106
-155 143 -210 81 -119 192 -281 239 -347 18 -26 33 -52 33 -58 0 -5 4 -10 8
-10 4 0 15 -12 24 -27 9 -16 24 -37 33 -48 9 -11 33 -45 53 -76 20 -31 69
-103 108 -160 39 -57 88 -129 108 -159 21 -30 44 -64 52 -75 53 -76 84 -126
84 -135 0 -7 -159 -10 -510 -10 l-510 1 -43 60 c-85 120 -153 217 -212 298
-33 46 -73 103 -90 127 -40 58 -353 495 -368 514 -7 8 -30 41 -52 74 -22 32
-56 80 -75 107 -19 26 -68 94 -108 151 -41 57 -93 130 -117 163 -24 33 -65 90
-90 128 -26 37 -52 67 -59 67 -7 0 -26 -19 -42 -42 -16 -24 -63 -90 -104 -148
-42 -58 -93 -130 -113 -160 -94 -138 -125 -178 -132 -172 -5 4 -5 2 -2 -5 4
-6 1 -17 -6 -25 -7 -7 -32 -40 -54 -73 -23 -33 -69 -98 -102 -145 -33 -47 -89
-125 -123 -173 -35 -49 -71 -101 -81 -115 -9 -15 -22 -26 -28 -24 -6 1 -7 -2
-4 -8 4 -7 -2 -21 -13 -33 -11 -12 -36 -47 -56 -77 -19 -30 -88 -127 -151
-215 -64 -88 -133 -186 -153 -217 l-37 -57 -508 0 c-279 0 -513 2 -521 5 -14
5 -10 44 4 44 5 0 23 24 40 53 18 28 36 54 40 57 4 3 42 57 86 120 155 227
223 325 234 337 6 7 20 28 31 48 12 19 26 32 32 28 6 -4 7 -1 2 6 -4 7 1 22
13 34 11 12 32 42 48 67 16 25 32 47 35 50 4 3 23 30 42 60 20 30 53 78 72
105 20 28 65 93 101 145 36 52 96 140 135 195 38 55 118 170 176 255 59 85
109 157 113 160 3 3 20 28 38 55 17 28 35 55 39 60 16 20 191 271 216 310 14
22 44 65 66 95 45 63 164 234 267 385 39 58 74 102 78 100 3 -3 4 -2 1 1 -2 4
16 35 40 69 25 34 45 68 45 74 0 6 4 11 9 11 4 0 28 28 51 63 174 253 189 273
196 264 1 -1 23 -33 49 -72z m51 -2711 c56 -82 109 -157 118 -166 9 -10 16
-21 16 -24 0 -3 30 -49 67 -102 104 -151 113 -164 113 -173 0 -5 -193 -9 -430
-9 -244 0 -430 4 -430 9 0 8 32 57 99 152 30 42 166 237 181 259 6 8 35 49 65
90 30 41 59 85 65 98 6 13 15 22 22 20 6 -2 58 -71 114 -154z"/>
<path d="M7537 7974 c-25 -19 -48 -42 -51 -50 -5 -13 25 -51 107 -137 18 -18
17 -20 -35 -68 -199 -186 -288 -272 -288 -279 0 -10 99 -110 109 -110 3 0 33
27 66 60 33 33 66 58 73 55 7 -3 10 0 7 5 -7 11 143 156 157 152 5 -1 7 1 4 6
-3 5 4 16 16 26 19 17 21 17 46 -6 14 -13 37 -36 51 -52 38 -44 52 -56 62 -56
14 0 99 81 99 95 0 6 -9 20 -20 30 -11 10 -17 22 -13 28 3 5 2 7 -4 4 -13 -8
-86 67 -76 77 5 4 3 6 -3 4 -6 -2 -27 17 -48 40 -20 24 -36 41 -36 38 0 -3
-21 18 -47 47 -70 76 -120 127 -125 127 -3 0 -25 -16 -51 -36z"/>
<path d="M1755 7770 c-3 -5 -1 -17 4 -27 5 -10 16 -38 25 -63 8 -25 24 -70 36
-100 11 -30 37 -102 56 -160 20 -58 39 -109 44 -115 4 -5 19 -49 34 -96 14
-48 32 -91 39 -97 15 -13 46 12 92 72 l26 34 -20 40 -20 40 83 87 c89 94 78
89 160 69 19 -5 33 4 72 46 27 29 49 57 49 63 0 10 -35 22 -350 121 -99 31
-207 66 -241 76 -68 23 -80 24 -89 10z m283 -216 c29 -10 52 -25 52 -33 0 -11
3 -11 17 0 10 8 -7 -12 -37 -43 -30 -32 -57 -58 -59 -58 -2 0 -2 3 2 6 3 4 -4
27 -17 53 -31 61 -41 105 -24 99 7 -3 37 -14 66 -24z"/>
<path d="M1494 7449 c-27 -38 -71 -100 -99 -136 -27 -36 -61 -82 -74 -102 -13
-20 -37 -51 -52 -69 -16 -18 -29 -39 -29 -46 0 -7 24 -30 53 -50 l52 -37 37
42 c20 24 45 58 55 76 10 18 20 33 23 33 6 0 117 -77 180 -125 129 -98 213
-153 223 -149 7 2 28 30 47 61 l34 55 -40 35 c-32 29 -100 79 -319 237 -20 14
-20 14 5 60 13 25 30 48 37 50 17 7 43 60 35 72 -16 21 -82 64 -100 64 -12 0
-36 -25 -68 -71z"/>
<path d="M8215 7075 c-71 -8 -173 -18 -225 -24 -52 -6 -144 -15 -205 -21 -145
-15 -141 -12 -110 -57 14 -21 25 -43 25 -49 0 -6 9 -19 19 -28 15 -14 29 -16
64 -11 44 7 46 6 63 -26 9 -19 28 -48 40 -65 13 -17 24 -36 24 -42 0 -7 4 -12
9 -12 5 0 14 -13 21 -29 10 -26 9 -35 -10 -69 l-22 -39 32 -57 c46 -82 68 -84
105 -13 9 18 45 77 80 132 35 55 80 127 100 160 19 33 62 103 94 155 57 91 64
111 38 109 -7 -1 -70 -7 -142 -14z m-85 -144 c0 -4 -8 -16 -18 -27 -9 -10 -31
-38 -49 -62 l-31 -43 -35 53 c-20 29 -34 55 -31 57 4 5 115 26 147 28 9 1 17
-2 17 -6z"/>
<path d="M1128 6911 c-16 -28 -28 -57 -28 -65 0 -8 21 -27 48 -42 26 -15 76
-43 112 -64 36 -20 82 -46 103 -58 20 -12 52 -30 70 -41 17 -10 56 -32 85 -50
29 -17 55 -31 58 -31 3 0 17 -9 31 -20 14 -11 29 -17 34 -15 10 7 69 116 69
129 0 6 -23 25 -52 41 -29 17 -73 42 -98 57 -25 15 -61 36 -80 46 -19 10 -87
49 -150 86 -63 37 -128 70 -145 72 -27 5 -32 1 -57 -45z"/>
<path d="M980 6643 c-13 -38 -26 -72 -30 -78 -4 -5 -17 -39 -30 -75 -13 -36
-29 -78 -36 -95 -55 -129 -77 -196 -67 -205 4 -4 32 -16 61 -26 63 -22 60 -25
103 91 27 70 41 81 74 55 6 -4 48 -22 95 -39 47 -18 136 -53 198 -78 63 -25
118 -41 122 -37 4 5 19 37 33 71 23 59 22 83 -5 83 -5 0 -50 17 -101 38 -50
22 -143 59 -204 83 -62 24 -113 49 -113 56 0 6 12 44 26 83 14 39 24 78 22 87
-2 13 -89 51 -119 53 -3 0 -16 -30 -29 -67z"/>
<path d="M8450 6639 c-140 -67 -207 -98 -255 -120 -134 -59 -195 -90 -195 -99
0 -6 14 -38 30 -71 35 -69 27 -69 156 -8 45 22 86 39 92 39 5 0 29 -43 53 -95
23 -52 45 -95 47 -95 3 0 29 12 59 27 49 25 53 30 51 60 -1 18 -6 33 -10 33
-4 0 -8 6 -8 13 0 7 -8 28 -19 47 -35 66 -35 79 -4 92 15 6 30 12 33 12 3 1
10 4 16 8 6 4 29 -34 59 -98 48 -102 58 -113 93 -95 9 5 30 14 45 20 49 19 48
21 -34 201 -55 120 -84 173 -94 176 -5 2 -57 -20 -115 -47z"/>
<path d="M8650 6118 c-58 -16 -136 -38 -175 -48 -38 -10 -104 -28 -145 -40
-41 -12 -90 -25 -108 -30 -45 -11 -46 -13 -32 -54 6 -19 13 -47 16 -63 3 -15
9 -32 14 -37 4 -4 52 4 107 19 54 15 106 29 116 32 16 4 17 2 9 -14 -16 -29
-109 -132 -116 -127 -3 2 -4 1 -1 -3 3 -4 -11 -24 -31 -44 l-36 -37 12 -54 c7
-29 20 -69 28 -88 l14 -34 32 35 c17 19 45 52 61 74 17 21 40 49 53 62 12 13
22 27 22 31 0 4 9 16 21 25 20 18 22 17 57 -10 33 -25 46 -28 108 -28 62 0 75
3 108 29 21 16 47 47 57 70 30 66 27 92 -33 324 -14 51 -15 51 -158 10z m68
-245 c-19 -39 -61 -58 -97 -43 -28 11 -44 33 -56 77 -6 23 -10 22 105 51 33 8
36 7 48 -24 11 -27 11 -37 0 -61z"/>
<path d="M700 5782 c0 -4 -13 -86 -29 -182 -17 -96 -28 -177 -26 -181 5 -8 32
-13 185 -40 63 -10 147 -26 185 -34 145 -32 161 -35 201 -41 35 -5 43 -3 47
12 8 28 23 105 48 237 26 139 24 143 -61 149 l-55 3 -21 -105 -21 -105 -52 1
c-29 1 -54 4 -56 6 -3 2 0 29 6 59 6 29 13 72 16 95 l5 40 -63 12 c-44 8 -65
8 -70 1 -3 -6 -12 -43 -19 -82 -7 -40 -16 -77 -21 -83 -5 -6 -26 -8 -51 -5
-42 6 -43 7 -40 40 2 19 8 44 12 56 4 12 11 47 15 77 l7 56 -38 11 c-45 13
-104 14 -104 3z"/>
<path d="M8878 5515 c-2 -2 -28 -6 -58 -9 -157 -18 -458 -57 -482 -62 -28 -6
-28 -6 -22 -62 8 -65 21 -105 31 -99 9 5 2 4 348 47 137 17 252 33 255 35 4 2
1 37 -5 77 -10 70 -12 73 -38 74 -14 1 -28 0 -29 -1z"/>
<path d="M8587 5185 c-95 -19 -190 -94 -229 -181 -33 -74 -32 -211 2 -278 14
-27 29 -50 35 -52 24 -7 156 -10 161 -3 2 4 -10 28 -27 54 -40 59 -52 106 -44
166 14 103 147 168 253 123 115 -48 144 -167 67 -269 -23 -29 -31 -47 -23 -51
6 -4 43 -9 82 -12 59 -4 74 -1 86 13 8 9 15 22 17 29 1 6 9 36 18 66 13 47 13
111 0 170 -15 65 -108 173 -175 203 -58 26 -155 36 -223 22z"/>
<path d="M609 5148 c0 -18 -1 -52 -2 -75 -1 -28 3 -45 11 -48 8 -3 56 -5 107
-5 118 0 120 -2 110 -137 l-7 -95 -109 4 c-84 2 -110 0 -114 -10 -3 -8 -5 -42
-5 -77 0 -61 1 -64 28 -69 15 -2 155 -6 312 -8 l285 -3 5 68 c3 37 4 72 2 77
-2 6 -54 10 -126 10 -68 0 -125 2 -127 4 -2 2 -3 54 -1 115 l3 110 32 3 c18 2
72 1 120 -2 49 -3 93 -3 97 0 12 7 15 139 4 149 -5 5 -147 12 -316 16 l-308 7
-1 -34z"/>
<path d="M8355 4588 c-3 -24 -9 -57 -12 -74 -4 -28 0 -35 34 -60 21 -15 39
-29 41 -29 1 -1 -4 -23 -12 -50 -8 -26 -14 -51 -14 -54 2 -7 -11 -89 -18 -113
-3 -9 -26 -24 -53 -33 -48 -16 -49 -16 -56 -68 -13 -82 -12 -102 5 -101 14 2
90 22 300 80 47 13 114 31 150 40 36 9 74 19 85 24 11 5 43 14 70 20 73 16 86
26 57 48 -13 9 -40 31 -60 47 -21 17 -44 35 -53 40 -36 23 -155 112 -189 143
-21 17 -42 32 -48 32 -6 0 -12 4 -14 9 -6 15 -177 141 -192 141 -9 0 -17 -16
-21 -42z m263 -292 c49 -33 52 -44 15 -51 -16 -4 -47 -10 -70 -16 -23 -5 -46
-9 -51 -9 -8 0 1 75 13 117 5 14 23 6 93 -41z"/>
<path d="M709 4456 c-2 -2 -22 -6 -44 -8 -49 -5 -54 -21 -31 -117 8 -36 29
-145 46 -241 17 -96 35 -178 39 -183 4 -4 36 -2 72 5 69 14 68 13 53 83 -19
92 -24 119 -22 120 2 1 71 14 153 29 262 48 310 58 317 65 7 6 -6 139 -15 147
-5 5 -73 -5 -295 -46 -95 -18 -179 -29 -186 -27 -9 4 -17 31 -21 69 -10 81
-20 108 -43 108 -10 0 -21 -2 -23 -4z"/>
<path d="M1585 2982 c-11 -2 -38 -10 -60 -17 -22 -8 -66 -21 -97 -30 -34 -9
-58 -21 -58 -29 0 -7 -30 -25 -67 -39 -154 -57 -225 -86 -238 -97 -9 -7 -15
-29 -15 -51 0 -43 35 -91 104 -141 42 -30 102 -38 124 -16 20 20 14 32 -28 56
-21 12 -51 38 -67 58 -25 34 -26 37 -10 49 20 14 159 64 252 89 72 20 249 82
276 96 26 14 24 46 -4 65 -22 14 -57 16 -112 7z"/>
<path d="M8232 2832 c-27 -27 -27 -25 3 -147 25 -102 30 -135 19 -135 -4 0
-24 20 -46 45 -41 46 -74 57 -85 29 -3 -9 1 -63 10 -119 10 -57 17 -108 17
-114 0 -18 -21 -13 -62 15 -60 42 -68 32 -68 -92 0 -59 -2 -105 -5 -102 -3 3
-13 70 -21 149 -18 168 -30 192 -71 145 -25 -30 -25 -30 -17 -145 5 -64 8
-137 9 -163 0 -42 3 -48 33 -64 17 -9 32 -23 32 -29 0 -19 49 -47 70 -40 27 9
34 38 32 143 l-2 92 23 -14 c29 -19 74 -9 94 21 12 18 14 40 11 92 l-5 69 31
-19 c43 -26 74 -25 81 4 6 23 1 90 -11 160 -9 51 9 42 62 -31 28 -38 49 -82
62 -132 32 -115 77 -210 101 -210 28 0 34 14 33 76 0 43 -10 73 -52 160 -48
100 -59 134 -77 258 -7 45 -11 50 -37 53 -28 4 -29 3 -23 -29 3 -18 9 -42 13
-53 6 -19 5 -18 -15 2 -11 12 -21 25 -21 28 0 3 -11 18 -24 33 -13 15 -35 40
-48 56 l-25 29 -21 -21z"/>
<path d="M1420 2588 c-19 -5 -39 -13 -44 -18 -4 -5 -22 -6 -40 -3 -24 3 -34 0
-44 -17 -9 -15 -10 -26 -3 -33 7 -7 5 -19 -5 -40 -41 -78 44 -156 171 -157
l39 0 -52 -53 c-53 -54 -65 -90 -40 -115 18 -18 133 -14 228 8 149 36 197 58
187 84 -8 20 -44 21 -83 2 -30 -15 -168 -46 -204 -46 -36 0 -22 19 65 87 47
37 85 73 85 80 0 18 -44 27 -98 18 -73 -11 -140 -9 -166 5 -27 14 -53 56 -42
67 4 5 50 8 101 8 79 0 98 3 122 21 39 29 42 66 7 93 -21 16 -40 21 -88 20
-33 0 -77 -5 -96 -11z m78 -65 c-10 -2 -26 -2 -35 0 -10 3 -2 5 17 5 19 0 27
-2 18 -5z"/>
<path d="M7537 2473 c-19 -18 15 -135 71 -246 26 -52 28 -63 20 -100 -5 -23
-7 -70 -3 -105 4 -35 3 -87 -1 -115 -6 -46 -8 -49 -16 -27 -10 30 -56 60 -91
60 -15 0 -33 -10 -45 -24 -14 -19 -22 -22 -31 -13 -8 8 -15 7 -28 -5 -12 -12
-18 -46 -24 -125 -5 -59 -11 -120 -14 -134 -6 -26 7 -44 34 -51 10 -2 17 8 21
27 l6 30 19 -32 c20 -34 64 -51 103 -39 22 7 72 93 72 125 0 14 6 21 20 21 11
0 23 7 25 15 16 51 15 50 31 27 19 -27 55 -28 79 -2 16 17 17 32 12 112 -4 51
-9 104 -13 117 -6 21 -5 23 12 16 60 -25 73 -27 95 -22 43 11 69 44 69 87 0
29 -5 42 -19 50 -30 15 -40 12 -47 -15 -4 -16 -13 -25 -26 -25 -27 0 -96 50
-104 75 -4 11 -17 34 -29 50 -12 17 -28 46 -35 65 -17 45 -87 170 -107 193
-16 17 -44 23 -56 10z m187 -469 c19 -72 22 -140 5 -112 -10 18 -39 157 -39
186 1 29 16 -6 34 -74z m-178 -182 c21 -13 35 -86 23 -120 -25 -73 -70 -26
-64 69 1 30 3 55 4 57 2 5 26 1 37 -6z"/>
<path d="M1813 2190 c-29 -4 -72 -19 -96 -34 -25 -14 -47 -23 -49 -20 -12 11
-58 -17 -58 -36 0 -11 4 -20 9 -20 6 0 6 -12 -1 -30 -5 -17 -7 -45 -4 -64 5
-27 16 -38 55 -60 31 -16 64 -26 91 -26 36 0 41 -2 34 -17 -4 -10 -9 -35 -12
-55 -3 -33 1 -42 31 -72 29 -28 47 -36 92 -41 59 -8 69 -4 80 33 5 19 3 22
-20 22 -40 0 -85 36 -85 68 0 32 25 72 44 72 35 0 236 66 285 93 129 72 169
116 144 156 -22 34 -106 22 -246 -36 -58 -23 -149 -75 -177 -100 -59 -51 -80
-63 -116 -63 -53 0 -106 33 -102 63 3 20 10 22 84 27 69 5 87 10 118 33 40 31
47 64 19 90 -25 21 -59 26 -120 17z m7 -80 c-20 -13 -43 -13 -35 0 3 6 16 10
28 10 18 0 19 -2 7 -10z m365 -50 c-3 -5 -34 -22 -68 -38 -71 -34 -122 -48
-112 -32 3 5 12 10 19 10 7 0 44 16 82 35 72 36 89 41 79 25z"/>
<path d="M7020 2025 c-29 -19 -53 -35 -55 -35 -6 0 -99 -97 -112 -117 -13 -19
-12 -27 6 -67 11 -25 26 -46 34 -46 8 0 33 25 56 55 23 30 45 55 50 55 4 0 30
-39 57 -86 27 -47 54 -91 59 -97 6 -7 26 -36 44 -66 66 -108 180 -239 199
-227 21 12 20 57 -2 84 -57 72 -75 104 -178 302 -49 96 -86 140 -115 140 -14
0 -14 3 2 20 10 11 22 20 27 20 5 0 20 7 33 16 l25 16 -26 34 c-15 19 -32 34
-39 34 -7 0 -36 -16 -65 -35z"/>
<path d="M2520 1983 c-8 -3 -28 -20 -43 -37 -44 -49 -137 -174 -137 -184 0 -4
-10 -18 -23 -30 -13 -12 -34 -44 -47 -70 -13 -26 -27 -49 -31 -52 -12 -9 -39
-100 -39 -134 0 -53 27 -78 92 -84 42 -3 65 1 98 17 53 25 62 26 33 3 -31 -24
-83 -92 -83 -108 0 -45 113 -35 124 11 6 25 156 179 261 270 135 116 192 197
154 220 -15 10 -51 -1 -74 -22 -11 -10 -32 -26 -48 -36 -15 -10 -51 -39 -79
-65 -117 -107 -118 -109 -200 -165 -78 -53 -135 -68 -156 -40 -31 41 35 181
141 297 12 14 39 43 60 66 35 37 38 45 34 85 -4 49 -14 65 -37 58z"/>
<path d="M2799 1470 c-44 -36 -188 -117 -224 -126 -25 -6 -45 -31 -45 -55 0
-8 10 -9 31 -5 l32 6 -24 -29 c-13 -16 -49 -60 -80 -98 -65 -80 -109 -153
-109 -182 0 -17 6 -21 30 -21 31 0 33 2 181 139 32 29 68 61 81 69 13 9 29 22
36 29 21 20 32 15 39 -17 6 -33 45 -70 73 -70 16 0 18 10 18 83 0 45 -4 89 -9
98 -14 27 -55 29 -91 3 -43 -31 -50 -35 -78 -59 -39 -33 -11 4 37 48 25 23 54
49 65 58 119 104 149 151 98 156 -16 2 -39 -8 -61 -27z"/>
<path d="M3242 1484 c-39 -73 -71 -372 -45 -418 8 -15 4 -24 -19 -50 -50 -53
-108 -130 -108 -143 0 -20 52 -40 90 -34 29 5 35 11 41 38 10 52 95 145 236
260 34 28 81 73 104 99 23 27 45 51 48 54 13 11 41 73 41 91 0 60 -61 21 -237
-152 l-113 -111 0 44 c0 57 24 153 55 229 27 64 26 99 -4 99 -10 0 -32 3 -49
6 -23 5 -32 2 -40 -12z"/>
<path d="M6806 1458 c-9 -12 -16 -28 -16 -34 0 -22 -89 -306 -99 -317 -5 -5
-14 20 -20 54 -7 35 -22 87 -33 116 -17 47 -23 53 -48 53 -38 0 -53 -23 -80
-121 -11 -42 -29 -95 -40 -117 -11 -23 -20 -50 -20 -60 0 -26 -65 -61 -82 -44
-9 9 -6 28 12 86 25 82 22 134 -11 167 -25 25 -41 24 -72 -5 -34 -32 -48 -90
-46 -187 2 -57 -1 -83 -10 -88 -7 -5 -12 -11 -12 -15 3 -20 -1 -18 -25 9 -14
17 -29 36 -34 44 -4 8 -23 14 -41 14 -40 0 -70 -32 -105 -114 l-23 -54 -1 87
c0 96 -14 124 -54 112 -32 -9 -51 -33 -76 -99 -13 -33 -32 -73 -42 -90 -22
-37 -23 -68 -3 -85 19 -16 35 2 62 67 10 24 21 43 24 43 4 0 7 -38 8 -84 2
-105 6 -118 39 -114 22 3 35 20 81 111 30 59 57 107 61 107 4 0 28 -16 53 -35
25 -19 53 -35 62 -35 19 0 75 58 75 77 0 18 6 16 40 -8 34 -25 76 -21 118 11
32 26 65 78 58 95 -6 16 48 158 62 163 5 1 17 -15 26 -38 20 -49 20 -50 1 -50
-22 0 -29 -44 -12 -76 21 -39 63 -78 79 -71 13 4 29 34 78 142 10 22 28 74 40
115 42 144 47 152 74 96 20 -43 20 -42 -4 -66 -19 -19 -20 -22 -4 -53 9 -17
30 -45 46 -62 28 -29 28 -29 48 -10 25 26 93 183 86 200 -3 8 -13 18 -24 24
-17 9 -21 5 -31 -30 -7 -23 -15 -38 -19 -34 -4 3 -12 32 -18 64 -7 32 -22 81
-34 109 -19 45 -26 52 -51 52 -17 0 -34 -8 -43 -22z m-466 -336 c0 -5 -7 -17
-16 -28 -14 -17 -15 -17 -10 -1 3 10 6 23 6 28 0 5 5 9 10 9 6 0 10 -4 10 -8z"/>
<path d="M4575 1209 c-141 -14 -189 -34 -197 -84 -2 -17 2 -20 32 -19 19 0 48
4 64 9 l29 8 -27 -36 c-23 -30 -30 -53 -37 -119 -9 -75 -13 -85 -39 -106 -25
-19 -28 -27 -20 -43 6 -10 18 -19 27 -19 14 0 15 -13 10 -105 -4 -96 -7 -107
-28 -125 -55 -45 -53 -42 -33 -57 10 -7 26 -13 35 -13 10 0 21 -4 24 -10 10
-16 43 -12 62 8 10 10 56 28 103 41 150 39 210 77 210 134 0 52 -35 77 -214
151 -33 14 -37 18 -25 32 7 8 35 27 62 41 72 36 168 102 194 132 29 34 32 120
6 143 -15 13 -140 51 -154 47 -2 -1 -40 -5 -84 -10z m114 -108 c19 -9 37 -21
38 -28 5 -13 -55 -75 -90 -95 -14 -7 -39 -21 -57 -31 -17 -10 -34 -16 -37 -14
-3 3 0 29 6 59 6 29 13 70 16 90 8 51 45 57 124 19z m-102 -363 c57 -22 93
-45 93 -60 0 -10 -118 -64 -159 -73 l-34 -7 7 58 c9 74 16 104 26 104 5 0 34
-10 67 -22z"/>
<path d="M5571 1118 c-24 -33 -31 -52 -29 -78 4 -48 41 -53 81 -12 24 25 28
36 25 78 -3 41 -6 49 -24 52 -16 2 -30 -9 -53 -40z"/>
<path d="M3595 1031 c-19 -6 -148 -66 -205 -94 -28 -14 -37 -41 -20 -62 10
-13 14 -12 27 0 22 23 36 18 19 -7 -21 -30 -20 -81 2 -108 15 -18 27 -22 72
-21 30 1 69 1 85 0 17 0 50 0 74 -1 46 0 61 11 61 50 0 14 -6 22 -17 22 -14 0
-13 4 6 21 42 40 55 113 24 142 -10 8 -30 18 -45 22 -17 5 -25 12 -21 21 3 8
1 14 -5 14 -6 0 -16 2 -24 4 -7 2 -22 1 -33 -3z m45 -146 c0 -24 -61 -81 -90
-85 -32 -5 -50 1 -50 14 0 28 35 76 55 76 11 0 28 7 38 15 25 18 47 9 47 -20z"/>
<path d="M3845 912 c-23 -20 -60 -54 -83 -75 -28 -25 -42 -46 -42 -62 0 -30
26 -34 46 -7 12 15 13 10 14 -36 0 -74 12 -92 60 -92 32 0 50 9 95 45 43 36
55 41 55 27 0 -24 36 -62 59 -62 10 0 32 5 50 11 41 14 44 55 5 69 -24 10 -26
14 -20 49 14 92 -24 94 -119 6 -38 -36 -73 -65 -77 -65 -19 0 -5 65 27 136 19
41 35 80 35 85 0 5 -15 9 -32 9 -24 0 -44 -11 -73 -38z"/>
<path d="M5379 913 c-13 -16 -38 -47 -54 -70 -42 -57 -113 -133 -125 -133 -5
0 -13 18 -16 40 -13 81 -61 76 -112 -12 -17 -29 -40 -64 -51 -78 -43 -52 -50
18 -17 153 12 49 12 59 1 63 -23 9 -66 -19 -89 -58 -11 -21 -38 -62 -59 -92
-33 -46 -37 -58 -27 -75 14 -27 26 -27 41 0 9 17 13 19 20 8 5 -8 9 -25 9 -39
0 -39 27 -70 59 -70 33 0 55 17 104 77 l35 43 16 -25 c33 -50 102 -38 147 27
13 18 36 47 52 63 16 17 36 40 44 52 8 13 19 20 24 17 12 -7 11 -75 -1 -94 -5
-8 -10 -11 -10 -7 0 4 -9 3 -20 -3 -13 -7 -20 -21 -20 -39 0 -50 32 -121 55
-121 13 0 165 153 165 166 0 6 7 18 16 25 14 12 21 8 53 -28 20 -23 43 -43 51
-44 36 -4 58 2 76 21 10 12 29 30 42 42 26 25 27 37 8 64 -14 19 -15 18 -44
-9 -36 -34 -57 -28 -73 21 -19 62 -36 82 -69 82 -22 0 -33 -6 -40 -22 -6 -13
-19 -36 -30 -53 -11 -16 -26 -44 -34 -60 -8 -17 -24 -39 -37 -50 -12 -11 -19
-14 -15 -8 18 31 31 166 22 217 -6 33 -10 36 -40 36 -23 0 -40 -8 -57 -27z"/>
</g>
</svg>
