<svg width="50" height="50" viewBox="0 0 50 50" fill="none" xmlns="http://www.w3.org/2000/svg">
<mask id="mask0_16_111" style="mask-type:alpha" maskUnits="userSpaceOnUse" x="0" y="0" width="50" height="50">
<rect width="50" height="50" fill="#D9D9D9"/>
</mask>
<g mask="url(#mask0_16_111)">
<path d="M25.5729 32.3437C28.0035 32.3437 30.0694 31.5625 31.7708 30C33.4722 28.4375 34.3229 26.5451 34.3229 24.3229C34.3229 22.3437 33.6889 20.668 32.4208 19.2958C31.1542 17.925 29.6181 17.2395 27.8125 17.2395C26.1806 17.2395 24.8007 17.7604 23.6729 18.802C22.5437 19.8437 21.9792 21.1284 21.9792 22.6562C21.9792 23.3159 22.1097 23.9583 22.3708 24.5833C22.6306 25.2083 23.0035 25.7812 23.4896 26.302L26.4583 23.3333C26.3542 23.2638 26.2764 23.177 26.225 23.0729C26.1722 22.9687 26.1458 22.8472 26.1458 22.7083C26.1458 22.3263 26.3021 22.0222 26.6146 21.7958C26.9271 21.5708 27.3264 21.4583 27.8125 21.4583C28.5069 21.4583 29.0799 21.7444 29.5312 22.3166C29.9826 22.8902 30.2083 23.5763 30.2083 24.375C30.2083 25.4513 29.766 26.3625 28.8812 27.1083C27.9951 27.8555 26.9097 28.2291 25.625 28.2291C23.9931 28.2291 22.6125 27.5694 21.4833 26.25C20.3556 24.9305 19.7917 23.3159 19.7917 21.4062C19.7917 20.3993 19.9826 19.4354 20.3646 18.5145C20.7465 17.5951 21.2847 16.7882 21.9792 16.0937L19.0104 13.125C17.8993 14.2013 17.0486 15.4514 16.4583 16.875C15.8681 18.2986 15.5729 19.7916 15.5729 21.3541C15.5729 24.4097 16.5451 27.0055 18.4896 29.1416C20.434 31.2764 22.7951 32.3437 25.5729 32.3437ZM12.5 45.8333V36.875C10.5208 35.0694 8.98472 32.9597 7.89167 30.5458C6.79722 28.1333 6.25 25.5902 6.25 22.9166C6.25 17.7083 8.07292 13.2812 11.7188 9.63538C15.3646 5.98954 19.7917 4.16663 25 4.16663C29.3403 4.16663 33.1861 5.44302 36.5375 7.99579C39.8875 10.5472 42.066 13.8715 43.0729 17.9687L45.7812 28.6458C45.9549 29.3055 45.8333 29.9048 45.4167 30.4437C45 30.9812 44.4444 31.25 43.75 31.25H39.5833V37.5C39.5833 38.6458 39.1757 39.627 38.3604 40.4437C37.5437 41.259 36.5625 41.6666 35.4167 41.6666H31.25V45.8333H27.0833V37.5H35.4167V27.0833H41.0417L39.0625 19.0104C38.2639 15.8507 36.5625 13.2812 33.9583 11.302C31.3542 9.32288 28.3681 8.33329 25 8.33329C20.9722 8.33329 17.5347 9.73954 14.6875 12.552C11.8403 15.3645 10.4167 18.7847 10.4167 22.8125C10.4167 24.8958 10.8424 26.875 11.6937 28.75C12.5437 30.625 13.75 32.2916 15.3125 33.75L16.6667 35V45.8333H12.5Z" fill="#1836B2"/>
</g>
</svg>
