<svg width="50" height="50" viewBox="0 0 50 50" fill="none" xmlns="http://www.w3.org/2000/svg">
<mask id="mask0_16_123" style="mask-type:alpha" maskUnits="userSpaceOnUse" x="0" y="0" width="50" height="50">
<rect width="50" height="50" fill="#D9D9D9"/>
</mask>
<g mask="url(#mask0_16_123)">
<path d="M20.8333 24.9999C18.5417 24.9999 16.5799 24.1839 14.9479 22.552C13.316 20.9201 12.5 18.9583 12.5 16.6666C12.5 14.3749 13.316 12.4131 14.9479 10.7812C16.5799 9.14922 18.5417 8.33325 20.8333 8.33325C23.125 8.33325 25.0868 9.14922 26.7187 10.7812C28.3507 12.4131 29.1667 14.3749 29.1667 16.6666C29.1667 18.9583 28.3507 20.9201 26.7187 22.552C25.0868 24.1839 23.125 24.9999 20.8333 24.9999ZM4.16667 41.6666V35.8333C4.16667 34.6874 4.4618 33.611 5.05208 32.6041C5.64236 31.5971 6.45833 30.8333 7.5 30.3124C9.27083 29.4096 11.2674 28.6458 13.4896 28.0208C15.7118 27.3958 18.1597 27.0833 20.8333 27.0833H21.5625C21.7708 27.0833 21.9792 27.118 22.1875 27.1874C21.9097 27.8124 21.675 28.4638 21.4833 29.1416C21.2931 29.818 21.1458 30.5208 21.0417 31.2499H20.8333C18.3681 31.2499 16.1542 31.5624 14.1917 32.1874C12.2306 32.8124 10.625 33.4374 9.375 34.0624C9.0625 34.236 8.81111 34.4791 8.62083 34.7916C8.42917 35.1041 8.33333 35.4513 8.33333 35.8333V37.4999H21.4583C21.6667 38.2291 21.9444 38.9499 22.2917 39.6624C22.6389 40.3735 23.0208 41.0416 23.4375 41.6666H4.16667ZM33.3333 43.7499L32.7083 40.6249C32.2917 40.4513 31.9007 40.2694 31.5354 40.0791C31.1715 39.8874 30.7986 39.6527 30.4167 39.3749L27.3958 40.3124L25.3125 36.7708L27.7083 34.6874C27.6389 34.2013 27.6042 33.7499 27.6042 33.3333C27.6042 32.9166 27.6389 32.4652 27.7083 31.9791L25.3125 29.8958L27.3958 26.3541L30.4167 27.2916C30.7986 27.0138 31.1715 26.7791 31.5354 26.5874C31.9007 26.3971 32.2917 26.2152 32.7083 26.0416L33.3333 22.9166H37.5L38.125 26.0416C38.5417 26.2152 38.9326 26.4062 39.2979 26.6145C39.6618 26.8228 40.0347 27.0833 40.4167 27.3958L43.4375 26.3541L45.5208 29.9999L43.125 32.0833C43.1944 32.4999 43.2292 32.9339 43.2292 33.3853C43.2292 33.8367 43.1944 34.2708 43.125 34.6874L45.5208 36.7708L43.4375 40.3124L40.4167 39.3749C40.0347 39.6527 39.6618 39.8874 39.2979 40.0791C38.9326 40.2694 38.5417 40.4513 38.125 40.6249L37.5 43.7499H33.3333ZM35.4167 37.4999C36.5625 37.4999 37.5437 37.0923 38.3604 36.277C39.1757 35.4603 39.5833 34.4791 39.5833 33.3333C39.5833 32.1874 39.1757 31.2062 38.3604 30.3895C37.5437 29.5742 36.5625 29.1666 35.4167 29.1666C34.2708 29.1666 33.2903 29.5742 32.475 30.3895C31.6583 31.2062 31.25 32.1874 31.25 33.3333C31.25 34.4791 31.6583 35.4603 32.475 36.277C33.2903 37.0923 34.2708 37.4999 35.4167 37.4999ZM20.8333 20.8333C21.9792 20.8333 22.9604 20.4249 23.7771 19.6083C24.5924 18.793 25 17.8124 25 16.6666C25 15.5208 24.5924 14.5402 23.7771 13.7249C22.9604 12.9083 21.9792 12.4999 20.8333 12.4999C19.6875 12.4999 18.7069 12.9083 17.8917 13.7249C17.075 14.5402 16.6667 15.5208 16.6667 16.6666C16.6667 17.8124 17.075 18.793 17.8917 19.6083C18.7069 20.4249 19.6875 20.8333 20.8333 20.8333Z" fill="#1836B2"/>
</g>
</svg>
