<svg width="50" height="50" viewBox="0 0 50 50" fill="none" xmlns="http://www.w3.org/2000/svg">
<mask id="mask0_16_129" style="mask-type:alpha" maskUnits="userSpaceOnUse" x="0" y="0" width="50" height="50">
<rect width="50" height="50" fill="#D9D9D9"/>
</mask>
<g mask="url(#mask0_16_129)">
<path d="M23.125 39.5834H26.7708V36.9793C28.5069 36.6668 30 35.9897 31.25 34.948C32.5 33.9063 33.125 32.3612 33.125 30.3126C33.125 28.8542 32.7083 27.5174 31.875 26.3022C31.0417 25.0869 29.375 24.0279 26.875 23.1251C24.7917 22.4306 23.3507 21.823 22.5521 21.3022C21.7535 20.7813 21.3542 20.0695 21.3542 19.1667C21.3542 18.264 21.6757 17.5522 22.3187 17.0313C22.9604 16.5105 23.8889 16.2501 25.1042 16.2501C26.2153 16.2501 27.0833 16.5195 27.7083 17.0584C28.3333 17.5959 28.7847 18.264 29.0625 19.0626L32.3958 17.7084C32.0139 16.4931 31.3111 15.4341 30.2875 14.5313C29.2625 13.6286 28.125 13.1251 26.875 13.0209V10.4167H23.2292V13.0209C21.493 13.4029 20.1389 14.1667 19.1667 15.3126C18.1944 16.4584 17.7083 17.7431 17.7083 19.1667C17.7083 20.7987 18.1861 22.1181 19.1417 23.1251C20.0958 24.132 21.5972 25.0001 23.6458 25.7292C25.8333 26.5279 27.3528 27.2397 28.2042 27.8647C29.0542 28.4897 29.4792 29.3056 29.4792 30.3126C29.4792 31.4584 29.0708 32.3001 28.2542 32.8376C27.4389 33.3765 26.4583 33.6459 25.3125 33.6459C24.1667 33.6459 23.1514 33.2897 22.2667 32.5772C21.3805 31.8661 20.7292 30.7987 20.3125 29.3751L16.875 30.7292C17.3611 32.3959 18.1167 33.7417 19.1417 34.7668C20.1653 35.7904 21.493 36.4931 23.125 36.8751V39.5834ZM25 45.8334C22.118 45.8334 19.4097 45.2862 16.875 44.1917C14.3403 43.0987 12.1354 41.6147 10.2604 39.7397C8.38541 37.8647 6.90138 35.6598 5.80832 33.1251C4.71388 30.5904 4.16666 27.882 4.16666 25.0001C4.16666 22.1181 4.71388 19.4098 5.80832 16.8751C6.90138 14.3404 8.38541 12.1355 10.2604 10.2605C12.1354 8.3855 14.3403 6.90078 16.875 5.80633C19.4097 4.71328 22.118 4.16675 25 4.16675C27.8819 4.16675 30.5903 4.71328 33.125 5.80633C35.6597 6.90078 37.8646 8.3855 39.7396 10.2605C41.6146 12.1355 43.0986 14.3404 44.1917 16.8751C45.2861 19.4098 45.8333 22.1181 45.8333 25.0001C45.8333 27.882 45.2861 30.5904 44.1917 33.1251C43.0986 35.6598 41.6146 37.8647 39.7396 39.7397C37.8646 41.6147 35.6597 43.0987 33.125 44.1917C30.5903 45.2862 27.8819 45.8334 25 45.8334ZM25 41.6668C29.6528 41.6668 33.5937 40.0522 36.8229 36.823C40.0521 33.5938 41.6667 29.6529 41.6667 25.0001C41.6667 20.3473 40.0521 16.4063 36.8229 13.1772C33.5937 9.948 29.6528 8.33342 25 8.33342C20.3472 8.33342 16.4062 9.948 13.1771 13.1772C9.94791 16.4063 8.33332 20.3473 8.33332 25.0001C8.33332 29.6529 9.94791 33.5938 13.1771 36.823C16.4062 40.0522 20.3472 41.6668 25 41.6668Z" fill="#1836B2"/>
</g>
</svg>
