<svg width="50" height="50" viewBox="0 0 50 50" fill="none" xmlns="http://www.w3.org/2000/svg">
<mask id="mask0_16_117" style="mask-type:alpha" maskUnits="userSpaceOnUse" x="0" y="0" width="50" height="50">
<rect width="50" height="50" fill="#D9D9D9"/>
</mask>
<g mask="url(#mask0_16_117)">
<path d="M25 45.8334C22.118 45.8334 19.4097 45.2862 16.875 44.1917C14.3403 43.0987 12.1354 41.6147 10.2604 39.7397C8.38541 37.8647 6.90138 35.6598 5.80832 33.1251C4.71388 30.5904 4.16666 27.882 4.16666 25.0001C4.16666 22.1181 4.71388 19.4098 5.80832 16.8751C6.90138 14.3404 8.38541 12.1355 10.2604 10.2605C12.1354 8.3855 14.3403 6.90078 16.875 5.80633C19.4097 4.71328 22.118 4.16675 25 4.16675C27.8819 4.16675 30.5903 4.71328 33.125 5.80633C35.6597 6.90078 37.8646 8.3855 39.7396 10.2605C41.6146 12.1355 43.0986 14.3404 44.1917 16.8751C45.2861 19.4098 45.8333 22.1181 45.8333 25.0001C45.8333 27.882 45.2861 30.5904 44.1917 33.1251C43.0986 35.6598 41.6146 37.8647 39.7396 39.7397C37.8646 41.6147 35.6597 43.0987 33.125 44.1917C30.5903 45.2862 27.8819 45.8334 25 45.8334ZM22.9167 41.5626V37.5001C21.7708 37.5001 20.7903 37.0924 19.975 36.2772C19.1583 35.4605 18.75 34.4792 18.75 33.3334V31.2501L8.74999 21.2501C8.64582 21.8751 8.54999 22.5001 8.46249 23.1251C8.37638 23.7501 8.33332 24.3751 8.33332 25.0001C8.33332 29.2015 9.71388 32.882 12.475 36.0417C15.2347 39.2015 18.7153 41.0418 22.9167 41.5626ZM37.2917 36.2501C37.9861 35.4862 38.6111 34.6612 39.1667 33.7751C39.7222 32.8904 40.1826 31.9702 40.5479 31.0147C40.9118 30.0605 41.1896 29.0799 41.3812 28.073C41.5715 27.0661 41.6667 26.0417 41.6667 25.0001C41.6667 21.5973 40.7208 18.4897 38.8292 15.6772C36.9361 12.8647 34.4097 10.8334 31.25 9.58342V10.4167C31.25 11.5626 30.8424 12.5431 30.0271 13.3584C29.2104 14.1751 28.2292 14.5834 27.0833 14.5834H22.9167V18.7501C22.9167 19.3404 22.7174 19.8348 22.3187 20.2334C21.9187 20.6334 21.4236 20.8334 20.8333 20.8334H16.6667V25.0001H29.1667C29.7569 25.0001 30.2521 25.1994 30.6521 25.598C31.0507 25.998 31.25 26.4931 31.25 27.0834V33.3334H33.3333C34.2361 33.3334 35.0521 33.6022 35.7812 34.1397C36.5104 34.6786 37.0139 35.382 37.2917 36.2501Z" fill="#1836B2"/>
</g>
</svg>
