<svg width="50" height="50" viewBox="0 0 50 50" fill="none" xmlns="http://www.w3.org/2000/svg">
<mask id="mask0_16_105" style="mask-type:alpha" maskUnits="userSpaceOnUse" x="0" y="0" width="50" height="50">
<rect width="50" height="50" fill="#D9D9D9"/>
</mask>
<g mask="url(#mask0_16_105)">
<path d="M25 41.6666C27.6042 41.6666 29.8181 40.7555 31.6417 38.9333C33.4639 37.1097 34.375 34.8958 34.375 32.2916C34.375 29.6875 33.4639 27.4736 31.6417 25.65C29.8181 23.8277 27.6042 22.9166 25 22.9166C22.3958 22.9166 20.1819 23.8277 18.3583 25.65C16.5361 27.4736 15.625 29.6875 15.625 32.2916C15.625 34.8958 16.5361 37.1097 18.3583 38.9333C20.1819 40.7555 22.3958 41.6666 25 41.6666ZM18.9062 20.2083C19.6007 19.8263 20.3389 19.5222 21.1208 19.2958C21.9014 19.0708 22.691 18.9236 23.4896 18.8541L18.2292 8.33329H13.0208L18.9062 20.2083ZM31.0938 20.2083L37.0313 8.33329H31.7708L26.5104 18.8541C27.309 18.9236 28.0993 19.0708 28.8813 19.2958C29.6618 19.5222 30.3993 19.8263 31.0938 20.2083ZM13.3333 39.1666C12.7431 38.1597 12.2833 37.0743 11.9542 35.9104C11.6236 34.7479 11.4583 33.5416 11.4583 32.2916C11.4583 31.0416 11.6236 29.8347 11.9542 28.6708C12.2833 27.5083 12.7431 26.4236 13.3333 25.4166C11.875 25.9027 10.6771 26.7625 9.73958 27.9958C8.80208 29.2277 8.33333 30.6597 8.33333 32.2916C8.33333 33.9236 8.80208 35.3555 9.73958 36.5875C10.6771 37.8208 11.875 38.6805 13.3333 39.1666ZM36.6667 39.1666C38.125 38.6805 39.3229 37.8208 40.2604 36.5875C41.1979 35.3555 41.6667 33.9236 41.6667 32.2916C41.6667 30.6597 41.1979 29.2277 40.2604 27.9958C39.3229 26.7625 38.125 25.9027 36.6667 25.4166C37.2569 26.4236 37.7174 27.5083 38.0479 28.6708C38.3771 29.8347 38.5417 31.0416 38.5417 32.2916C38.5417 33.5416 38.3771 34.7479 38.0479 35.9104C37.7174 37.0743 37.2569 38.1597 36.6667 39.1666ZM25 45.8333C23.6111 45.8333 22.2833 45.6333 21.0167 45.2333C19.7486 44.8347 18.5764 44.2882 17.5 43.5937C17.1875 43.6632 16.875 43.7069 16.5625 43.725C16.25 43.7416 15.9201 43.75 15.5729 43.75C12.4132 43.75 9.72222 42.6389 7.5 40.4166C5.27778 38.1944 4.16667 35.5034 4.16667 32.3437C4.16667 29.3229 5.17361 26.7361 7.1875 24.5833C9.20139 22.4305 11.684 21.2326 14.6354 20.9895L6.25 4.16663H20.8333L25 12.5L29.1667 4.16663H43.75L35.4167 20.8854C38.3681 21.1632 40.8417 22.3784 42.8375 24.5312C44.8347 26.684 45.8333 29.2708 45.8333 32.2916C45.8333 35.4861 44.7222 38.1944 42.5 40.4166C40.2778 42.6389 37.5694 43.75 34.375 43.75C34.0625 43.75 33.7417 43.7416 33.4125 43.725C33.0819 43.7069 32.7604 43.6632 32.4479 43.5937C31.3715 44.2882 30.2083 44.8347 28.9583 45.2333C27.7083 45.6333 26.3889 45.8333 25 45.8333ZM25 37.5L23.3854 33.9062L19.7917 32.2916L23.3854 30.677L25 27.0833L26.6146 30.677L30.2083 32.2916L26.6146 33.9062L25 37.5Z" fill="#1836B2"/>
</g>
</svg>
